<?xml version="1.0" encoding="utf-8"?>
<!-- Generator: Adobe Illustrator 16.0.4, SVG Export Plug-In . SVG Version: 6.00 Build 0)  -->
<!DOCTYPE svg PUBLIC "-//W3C//DTD SVG 1.1//EN" "http://www.w3.org/Graphics/SVG/1.1/DTD/svg11.dtd">
<svg version="1.1" id="Layer_1" xmlns="http://www.w3.org/2000/svg" xmlns:xlink="http://www.w3.org/1999/xlink" x="0px" y="0px"
	 width="21px" height="21px" viewBox="0 0 21 21" enable-background="new 0 0 21 21" xml:space="preserve">
<g>
	<path d="M18.25,10H17V7.75C17,7.336,16.664,7,16.25,7h-5.939l-1.78-1.779C8.396,5.084,8.209,5,8,5H3.75C3.336,5,3,5.336,3,5.75V7
		v10.25C3,17.664,3.336,18,3.75,18H6h6.5h3.75h0.25c0.414,0,0.75-0.336,0.75-0.75l1.75-6.5C19,10.336,18.664,10,18.25,10z"/>
</g>
<path fill="#FFFFFF" d="M5.25,16l1-5.75C6.25,10.112,6.362,10,6.5,10H17V9H6.5c-0.689,0-1.25,0.561-1.25,1.25l-1,5.75"/>
<rect fill="#4387FD" fill-opacity="0" width="21" height="21"/>
</svg>
