<?xml version="1.0" encoding="utf-8"?>
<!-- Generator: Adobe Illustrator 15.0.0, SVG Export Plug-In  -->
<!DOCTYPE svg PUBLIC "-//W3C//DTD SVG 1.1//EN" "http://www.w3.org/Graphics/SVG/1.1/DTD/svg11.dtd" [
	<!ENTITY ns_flows "http://ns.adobe.com/Flows/1.0/">
]>
<svg version="1.1"
	 xmlns="http://www.w3.org/2000/svg" xmlns:xlink="http://www.w3.org/1999/xlink" xmlns:a="http://ns.adobe.com/AdobeSVGViewerExtensions/3.0/"
	 x="0px" y="0px" width="21px" height="21px" viewBox="0 0 21 21" overflow="visible" enable-background="new 0 0 21 21"
	 xml:space="preserve">
<defs>
</defs>
<path d="M16.737,15.501l-2.742-2.743h-0.643l-0.551-0.551c0.733-0.87,1.193-1.979,1.193-3.207c0-2.761-2.238-5-5-5
	s-4.99,2.239-4.99,5s2.229,5,4.99,5c1.229,0,2.337-0.46,3.208-1.194l0.552,0.55V14l2.741,2.742c0.343,0.343,0.898,0.344,1.241,0.001
	C17.081,16.4,17.081,15.845,16.737,15.501z M8.995,12.25c-1.796,0-3.251-1.455-3.251-3.25s1.455-3.25,3.251-3.25
	c1.797,0,3.249,1.455,3.249,3.25S10.792,12.25,8.995,12.25z"/>
<rect opacity="0" fill="#4387FD" width="21" height="21"/>
</svg>
